<svg width="36" height="36" viewBox="0 0 36 36" fill="none" xmlns="http://www.w3.org/2000/svg">
<path d="M22 12C21.4333 12 20.9587 11.808 20.576 11.424C20.1933 11.04 20.0013 10.5653 20 10V2C20 1.43333 20.192 0.958667 20.576 0.576C20.96 0.193334 21.4347 0.00133333 22 0H34C34.5667 0 35.042 0.192 35.426 0.576C35.81 0.96 36.0013 1.43467 36 2V10C36 10.5667 35.808 11.042 35.424 11.426C35.04 11.81 34.5653 12.0013 34 12H22ZM2 20C1.43333 20 0.958667 19.808 0.576 19.424C0.193334 19.04 0.00133333 18.5653 0 18V2C0 1.43333 0.192 0.958667 0.576 0.576C0.96 0.193334 1.43467 0.00133333 2 0H14C14.5667 0 15.042 0.192 15.426 0.576C15.81 0.96 16.0013 1.43467 16 2V18C16 18.5667 15.808 19.042 15.424 19.426C15.04 19.81 14.5653 20.0013 14 20H2ZM22 36C21.4333 36 20.9587 35.808 20.576 35.424C20.1933 35.04 20.0013 34.5653 20 34V18C20 17.4333 20.192 16.9587 20.576 16.576C20.96 16.1933 21.4347 16.0013 22 16H34C34.5667 16 35.042 16.192 35.426 16.576C35.81 16.96 36.0013 17.4347 36 18V34C36 34.5667 35.808 35.042 35.424 35.426C35.04 35.81 34.5653 36.0013 34 36H22ZM2 36C1.43333 36 0.958667 35.808 0.576 35.424C0.193334 35.04 0.00133333 34.5653 0 34V26C0 25.4333 0.192 24.9587 0.576 24.576C0.96 24.1933 1.43467 24.0013 2 24H14C14.5667 24 15.042 24.192 15.426 24.576C15.81 24.96 16.0013 25.4347 16 26V34C16 34.5667 15.808 35.042 15.424 35.426C15.04 35.81 14.5653 36.0013 14 36H2Z" fill="white"/>
</svg>
