<svg width="23" height="23" viewBox="0 0 23 23" fill="none" xmlns="http://www.w3.org/2000/svg">
<path d="M11.2686 13.6333L2.99226 21.9097C2.6826 22.2194 2.28848 22.3742 1.80992 22.3742C1.33135 22.3742 0.937237 22.2194 0.627576 21.9097C0.317916 21.6 0.163086 21.2059 0.163086 20.7274C0.163086 20.2488 0.317916 19.8547 0.627576 19.545L8.90396 11.2686L0.627576 2.99226C0.317916 2.6826 0.163086 2.28848 0.163086 1.80992C0.163086 1.33135 0.317916 0.937237 0.627576 0.627576C0.937237 0.317916 1.33135 0.163086 1.80992 0.163086C2.28848 0.163086 2.6826 0.317916 2.99226 0.627576L11.2686 8.90396L19.545 0.627576C19.8547 0.317916 20.2488 0.163086 20.7274 0.163086C21.2059 0.163086 21.6 0.317916 21.9097 0.627576C22.2194 0.937237 22.3742 1.33135 22.3742 1.80992C22.3742 2.28848 22.2194 2.6826 21.9097 2.99226L13.6333 11.2686L21.9097 19.545C22.2194 19.8547 22.3742 20.2488 22.3742 20.7274C22.3742 21.2059 22.2194 21.6 21.9097 21.9097C21.6 22.2194 21.2059 22.3742 20.7274 22.3742C20.2488 22.3742 19.8547 22.2194 19.545 21.9097L11.2686 13.6333Z" fill="white"/>
</svg>
