<svg width="20" height="15" viewBox="0 0 20 15" fill="none" xmlns="http://www.w3.org/2000/svg">
<path d="M19.1252 8.75006C19.0596 8.7993 18.9849 8.83513 18.9053 8.8555C18.8258 8.87587 18.7431 8.88038 18.6618 8.86878C18.5806 8.85717 18.5024 8.82967 18.4318 8.78785C18.3612 8.74604 18.2995 8.69072 18.2502 8.62506C17.8735 8.1187 17.3832 7.70786 16.8187 7.42562C16.2542 7.14337 15.6313 6.99761 15.0002 7.00006C14.8345 7.00006 14.6755 6.93421 14.5583 6.817C14.4411 6.69979 14.3752 6.54082 14.3752 6.37506C14.3752 6.2093 14.4411 6.05033 14.5583 5.93312C14.6755 5.81591 14.8345 5.75006 15.0002 5.75006C15.3509 5.75003 15.6946 5.65165 15.9921 5.46611C16.2897 5.28056 16.5293 5.01528 16.6836 4.7004C16.838 4.38552 16.901 4.03366 16.8654 3.68479C16.8298 3.33592 16.6971 3.00402 16.4823 2.72679C16.2676 2.44957 15.9794 2.23812 15.6505 2.11648C15.3216 1.99483 14.9651 1.96787 14.6217 2.03864C14.2782 2.10941 13.9615 2.27509 13.7074 2.51685C13.4534 2.75861 13.2723 3.06676 13.1846 3.40631C13.1641 3.48582 13.1281 3.56051 13.0787 3.62612C13.0293 3.69172 12.9675 3.74696 12.8968 3.78867C12.8261 3.83039 12.7478 3.85776 12.6665 3.86923C12.5852 3.8807 12.5024 3.87605 12.4229 3.85553C12.3434 3.83501 12.2687 3.79903 12.2031 3.74964C12.1375 3.70026 12.0822 3.63844 12.0405 3.5677C11.9988 3.49697 11.9714 3.41872 11.96 3.3374C11.9485 3.25609 11.9532 3.17332 11.9737 3.09381C12.0954 2.62296 12.3253 2.18701 12.6451 1.82065C12.9649 1.45428 13.3658 1.16761 13.8159 0.983457C14.266 0.799299 14.7529 0.722731 15.2378 0.759848C15.7227 0.796964 16.1922 0.946738 16.609 1.19725C17.0259 1.44777 17.3785 1.79211 17.6388 2.20288C17.8991 2.61366 18.06 3.07952 18.1086 3.5634C18.1572 4.04728 18.0922 4.53583 17.9188 4.99017C17.7454 5.44452 17.4683 5.85211 17.1096 6.18053C17.9595 6.54849 18.6982 7.13241 19.2526 7.87428C19.3018 7.9401 19.3376 8.015 19.3578 8.09468C19.3781 8.17435 19.3824 8.25724 19.3706 8.33859C19.3588 8.41994 19.331 8.49816 19.2889 8.56877C19.2468 8.63937 19.1912 8.70098 19.1252 8.75006ZM14.9159 13.5626C14.9595 13.6337 14.9884 13.7129 15.001 13.7954C15.0135 13.8779 15.0094 13.9621 14.9889 14.043C14.9684 14.1239 14.9319 14.1999 14.8815 14.2664C14.8311 14.333 14.768 14.3888 14.6957 14.4305C14.6234 14.4723 14.5435 14.4991 14.4607 14.5095C14.3779 14.5198 14.2938 14.5135 14.2135 14.4909C14.1332 14.4682 14.0582 14.4297 13.993 14.3776C13.9278 14.3255 13.8737 14.2609 13.8338 14.1876C13.4401 13.5211 12.8794 12.9687 12.207 12.5851C11.5347 12.2014 10.774 11.9996 9.99985 11.9996C9.22573 11.9996 8.46499 12.2014 7.79266 12.5851C7.12033 12.9687 6.55962 13.5211 6.16586 14.1876C6.12679 14.2622 6.07301 14.3283 6.00777 14.3816C5.94252 14.435 5.86715 14.4746 5.7862 14.4981C5.70524 14.5216 5.62037 14.5285 5.53669 14.5183C5.45302 14.5081 5.37226 14.4811 5.29928 14.439C5.2263 14.3968 5.16261 14.3403 5.11204 14.2728C5.06147 14.2054 5.02506 14.1284 5.005 14.0465C4.98495 13.9647 4.98166 13.8796 4.99535 13.7964C5.00903 13.7132 5.03939 13.6337 5.08461 13.5626C5.69055 12.5214 6.61445 11.7021 7.72055 11.2251C7.09815 10.7485 6.64073 10.0889 6.41258 9.33899C6.18443 8.58904 6.19703 7.78646 6.44861 7.04405C6.70018 6.30163 7.17808 5.65672 7.81513 5.19996C8.45219 4.7432 9.21636 4.49755 10.0002 4.49755C10.7841 4.49755 11.5483 4.7432 12.1853 5.19996C12.8224 5.65672 13.3003 6.30163 13.5519 7.04405C13.8034 7.78646 13.816 8.58904 13.5879 9.33899C13.3597 10.0889 12.9023 10.7485 12.2799 11.2251C13.386 11.7021 14.3099 12.5214 14.9159 13.5626ZM10.0002 10.7501C10.4947 10.7501 10.978 10.6034 11.3892 10.3287C11.8003 10.054 12.1207 9.66358 12.3099 9.20677C12.4992 8.74995 12.5487 8.24728 12.4522 7.76233C12.3557 7.27738 12.1176 6.83192 11.768 6.48229C11.4184 6.13266 10.9729 5.89456 10.488 5.79809C10.003 5.70163 9.50034 5.75114 9.04353 5.94036C8.58671 6.12958 8.19627 6.45001 7.92156 6.86113C7.64686 7.27226 7.50024 7.75561 7.50024 8.25006C7.50024 8.9131 7.76363 9.54898 8.23247 10.0178C8.70131 10.4867 9.3372 10.7501 10.0002 10.7501ZM5.62524 6.37506C5.62524 6.2093 5.55939 6.05033 5.44218 5.93312C5.32497 5.81591 5.166 5.75006 5.00024 5.75006C4.64956 5.75003 4.30591 5.65165 4.00834 5.46611C3.71076 5.28056 3.47119 5.01528 3.31682 4.7004C3.16246 4.38552 3.09949 4.03366 3.13508 3.68479C3.17066 3.33592 3.30337 3.00402 3.51813 2.72679C3.73289 2.44957 4.02109 2.23812 4.35 2.11648C4.67891 1.99483 5.03534 1.96787 5.3788 2.03864C5.72227 2.10941 6.039 2.27509 6.29303 2.51685C6.54706 2.75861 6.72819 3.06676 6.81586 3.40631C6.8573 3.56689 6.96083 3.70443 7.10368 3.78867C7.24653 3.87292 7.417 3.89697 7.57758 3.85553C7.73816 3.81409 7.8757 3.71055 7.95995 3.5677C8.04419 3.42485 8.06824 3.25439 8.0268 3.09381C7.90511 2.62296 7.67522 2.18701 7.3554 1.82065C7.03558 1.45428 6.63468 1.16761 6.18458 0.983457C5.73447 0.799299 5.2476 0.722731 4.7627 0.759848C4.2778 0.796964 3.80826 0.946738 3.39143 1.19725C2.9746 1.44777 2.62199 1.79211 2.36166 2.20288C2.10133 2.61366 1.94046 3.07952 1.89185 3.5634C1.84325 4.04728 1.90825 4.53583 2.08168 4.99017C2.25511 5.44452 2.53219 5.85211 2.89086 6.18053C2.04186 6.54884 1.30392 7.13273 0.750237 7.87428C0.650677 8.00689 0.607874 8.17361 0.631242 8.33778C0.654611 8.50195 0.742238 8.65011 0.874846 8.74967C1.00745 8.84923 1.17418 8.89203 1.33835 8.86866C1.50252 8.84529 1.65068 8.75767 1.75024 8.62506C2.12695 8.1187 2.61728 7.70786 3.18177 7.42562C3.74625 7.14337 4.36912 6.99761 5.00024 7.00006C5.166 7.00006 5.32497 6.93421 5.44218 6.817C5.55939 6.69979 5.62524 6.54082 5.62524 6.37506Z" fill="white"/>
</svg>
