<svg width="33" height="30" viewBox="0 0 33 30" fill="none" xmlns="http://www.w3.org/2000/svg">
<path d="M0.375 1.71875C0.375 1.36237 0.516574 1.02058 0.768576 0.768576C1.02058 0.516574 1.36237 0.375 1.71875 0.375H31.2812C31.6376 0.375 31.9794 0.516574 32.2314 0.768576C32.4834 1.02058 32.625 1.36237 32.625 1.71875C32.625 2.07513 32.4834 2.41692 32.2314 2.66892C31.9794 2.92093 31.6376 3.0625 31.2812 3.0625H1.71875C1.36237 3.0625 1.02058 2.92093 0.768576 2.66892C0.516574 2.41692 0.375 2.07513 0.375 1.71875ZM0.375 15.1562C0.375 14.7999 0.516574 14.4581 0.768576 14.2061C1.02058 13.9541 1.36237 13.8125 1.71875 13.8125H31.2812C31.6376 13.8125 31.9794 13.9541 32.2314 14.2061C32.4834 14.4581 32.625 14.7999 32.625 15.1562C32.625 15.5126 32.4834 15.8544 32.2314 16.1064C31.9794 16.3584 31.6376 16.5 31.2812 16.5H1.71875C1.36237 16.5 1.02058 16.3584 0.768576 16.1064C0.516574 15.8544 0.375 15.5126 0.375 15.1562ZM1.71875 27.25C1.36237 27.25 1.02058 27.3916 0.768576 27.6436C0.516574 27.8956 0.375 28.2374 0.375 28.5938C0.375 28.9501 0.516574 29.2919 0.768576 29.5439C1.02058 29.7959 1.36237 29.9375 1.71875 29.9375H31.2812C31.6376 29.9375 31.9794 29.7959 32.2314 29.5439C32.4834 29.2919 32.625 28.9501 32.625 28.5938C32.625 28.2374 32.4834 27.8956 32.2314 27.6436C31.9794 27.3916 31.6376 27.25 31.2812 27.25H1.71875Z" fill="white"/>
</svg>
