<svg width="267" height="143" viewBox="0 0 267 143" fill="none" xmlns="http://www.w3.org/2000/svg">
<path d="M266.937 142.071C266.937 104.392 252.875 68.2554 227.845 41.6118C202.815 14.9682 168.866 2.87827e-06 133.468 3.3535e-08C98.0704 -2.8112e-06 64.1222 14.9682 39.092 41.6118C14.0618 68.2553 5.52601e-06 104.392 1.81057e-07 142.071H33.3671C33.3671 113.812 43.9134 86.7094 62.6861 66.7267C81.4587 46.744 106.92 35.5179 133.468 35.5179C160.017 35.5179 185.478 46.744 204.251 66.7267C223.023 86.7094 233.57 113.812 233.57 142.071H266.937Z" fill="#EA580C"/>
<path d="M68.8272 17.7743C47.9137 30.0977 30.4933 48.1736 18.3861 70.1133C6.27882 92.053 -0.0708183 117.051 0.000595808 142.496L33.3675 142.39C33.314 123.306 38.0762 104.558 47.1566 88.1028C56.2371 71.6481 69.3024 58.0911 84.9875 48.8486L68.8272 17.7743Z" fill="#FED7AA"/>
<path d="M200.203 19.034C179.963 6.59567 157.011 0.0322174 133.641 0.000118305C110.27 -0.0319808 87.302 6.4684 67.0327 18.8511L83.6416 49.6562C98.8436 40.3692 116.07 35.4939 133.598 35.518C151.125 35.542 168.34 40.4646 183.519 49.7933L200.203 19.034Z" fill="#FB923C"/>
</svg>
